<?xml version="1.0" encoding="UTF-8"?>
<svg version="1.0" xmlns="http://www.w3.org/2000/svg" width="450" height="300">
	<rect width="450" height="300" fill="#2c5bae"/>
	<path d="M 125.3125 69.28125 C 69.791617 69.28124 38.375 112.58547 38.375 150 C 38.375001 187.41454 69.791614 230.71875 125.3125 230.71875 C 151.98015 230.71875 178.55765 220.61245 204.8125 207 C 194.8029 203.03221 185.45966 199.91179 175.9375 198.21875 C 158.07758 205.86394 141.00308 210.71875 125.3125 210.71875 C 80.078811 210.71875 58.375001 176.30156 58.375 150 C 58.375 123.69845 80.078807 89.28125 125.3125 89.28125 C 140.98652 89.28125 158.04031 94.15556 175.875 101.78125 C 185.41156 100.09258 194.78986 96.94075 204.8125 92.96875 C 178.56572 79.36632 151.96781 69.28125 125.3125 69.28125 z M 324.6875 69.28125 C 284.03422 69.28125 254.49684 80.26274 229.625 90.71875 C 204.75316 101.17476 184.79814 110.625 160.875 110.625 L 88.625 110.625 C 81.266198 116.20918 76.040195 123.30384 72.75 130.625 L 160.875 130.625 C 189.99634 130.625 213.05474 119.38038 237.375 109.15625 C 261.69527 98.93212 287.58017 89.28125 324.6875 89.28125 C 369.9212 89.28125 391.62499 123.69846 391.625 150 C 391.625 153.82303 391.11021 157.8084 390.1875 161.84375 L 410.5625 161.84375 C 411.23827 157.86748 411.625 153.90391 411.625 150 C 411.62498 112.58548 380.20839 69.28125 324.6875 69.28125 z M 0 110.625 L 0 130.625 L 30.75 130.625 C 32.409697 123.81168 34.924988 117.07878 38.25 110.625 L 0 110.625 z M 408.9375 110.625 C 412.36937 117.06718 414.91398 123.80507 416.625 130.625 L 450 130.625 L 450 110.625 L 408.9375 110.625 z M 365.375 110.65625 C 324.73672 111.61534 283.7232 137.55534 242.875 162.09375 C 235.32247 166.63072 227.74395 171.12451 220.25 175.4375 C 227.03238 178.2079 233.69832 181.12568 240.3125 183.90625 C 241.30902 184.32518 242.31413 184.74122 243.3125 185.15625 C 246.59785 183.18813 249.8548 181.21449 253.125 179.25 C 294.81027 154.20875 335.34025 130.625 367.6875 130.625 L 379.9375 130.625 C 376.86856 123.43376 372.07661 116.41196 365.375 110.65625 z M 243.25 114.84375 C 242.26438 115.25345 241.29631 115.64891 240.3125 116.0625 C 233.69833 118.84307 227.03238 121.76085 220.25 124.53125 C 227.74394 128.84255 235.32247 133.33803 242.875 137.875 C 246.36565 139.9719 249.81621 142.05176 253.3125 144.125 C 259.83925 140.1946 266.39434 136.3032 273 132.53125 C 266.42381 128.70166 259.79179 124.75488 253.125 120.75 C 249.84715 118.78093 246.54305 116.81644 243.25 114.84375 z M 316.6875 155.59375 C 309.31315 159.06175 301.6939 162.9875 293.875 167.25 C 318.52864 180.00965 343.19553 189.34375 367.6875 189.34375 L 450 189.34375 L 450 169.34375 L 367.6875 169.34375 C 352.30264 169.34375 335.01804 163.91206 316.6875 155.59375 z M 0 169.34375 L 0 189.34375 L 38.25 189.34375 C 34.92656 182.88823 32.407478 176.15837 30.75 169.34375 L 0 169.34375 z M 72.75 169.34375 C 76.034348 176.66246 81.275948 183.75707 88.625 189.34375 L 160.875 189.34375 C 184.79814 189.34375 204.75317 198.79399 229.625 209.25 C 254.49684 219.70601 284.03422 230.71875 324.6875 230.71875 C 356.76083 230.71875 380.73675 216.26261 395.3125 196.84375 L 367.875 196.84375 C 357.18417 205.17661 342.83506 210.71875 324.6875 210.71875 C 287.58017 210.71875 261.69527 201.03663 237.375 190.8125 C 213.05473 180.58837 189.99634 169.34375 160.875 169.34375 L 72.75 169.34375 z" fill="#ffaa24"/>
</svg>